#!OML:ASF F:\VICON\USERDATA\INSTALL\rory3\rory3.ASF
:FULLY-SPECIFIED
:DEGREES
413
root 1.39382 9.77928 -7.76117 -37.5654 2.88027 0.0809236
lowerback 37.1388 4.16291 -6.64982
upperback 14.0741 2.9025 -0.977047
thorax -2.88305 1.22434 1.41982
lowerneck -1.99013 0.50247 -7.91731
upperneck 21.6436 1.15111 1.61393
head 6.88748 0.072802 1.93192
rclavicle -1.45113e-014 2.38542e-015
rhumerus -16.63 -5.76976 -56.8696
rradius 79.4962
rwrist -13.2037
rhand -34.4543 0.0721979
rfingers 7.12502
rthumb -7.61807 -29.7706
lclavicle -1.45113e-014 2.38542e-015
lhumerus -74.1813 -53.1139 115.595
lradius 75.0484
lwrist 13.8206
lhand -13.0735 28.8917
lfingers 7.12502
lthumb 13.0223 58.4652
rfemur -96.0656 -32.0987 23.959
rtibia 137.427
rfoot 32.0664 -22.7076
rtoes 34.7882
lfemur -51.9433 13.3422 6.203
ltibia 111.181
lfoot -10.6277 -5.36972
ltoes -13.8248
414
root 1.39056 9.77792 -7.76676 -37.5101 3.32112 0.607426
lowerback 37.0128 4.25861 -7.3514
upperback 14.0311 2.78594 -1.06115
thorax -2.8837 1.14346 1.73243
lowerneck -1.81675 0.484268 -7.83945
upperneck 21.711 1.12076 1.52754
head 6.88185 0.055367 1.88858
rclavicle -1.05356e-014 3.18055e-015
rhumerus -16.7981 -5.54087 -56.9912
rradius 79.5675
rwrist -13.0823
rhand -34.2334 -0.0726075
rfingers 7.12502
rthumb -7.40481 -29.923
lclavicle -1.05356e-014 3.18055e-015
lhumerus -74.1907 -52.7366 115.578
lradius 75.0983
lwrist 13.9221
lhand -13.4326 28.8096
lfingers 7.12502
lthumb 12.6762 58.4049
rfemur -96.1585 -32.9604 23.0834
rtibia 137.644
rfoot 32.0626 -22.6224
rtoes 35.3861
lfemur -52.0376 13.0641 5.29829
ltibia 111.139
lfoot -10.4962 -5.10264
ltoes -13.8698
415
root 1.38818 9.77587 -7.77052 -37.5971 3.33603 0.648675
lowerback 36.9218 4.22456 -7.38611
upperback 14.0763 2.7424 -1.06108
thorax -2.80185 1.11745 1.76969
lowerneck -1.62703 0.495303 -7.75934
upperneck 21.6529 1.11445 1.50447
head 6.83018 0.0578603 1.86537
rclavicle 1.92821e-014 -3.57812e-014
rhumerus -16.9686 -5.43494 -57.137
rradius 79.7008
rwrist -12.9588
rhand -34.055 -0.00131562
rfingers 7.12502
rthumb -7.23264 -29.8577
lclavicle 1.92821e-014 -3.57812e-014
lhumerus -74.1616 -52.5069 115.475
lradius 75.2063
lwrist 14.0001
lhand -13.8115 28.783
lfingers 7.12502
lthumb 12.3108 58.4006
rfemur -95.8059 -33.2691 22.7712
rtibia 137.739
rfoot 32.3431 -21.1229
rtoes 34.332
lfemur -51.9915 12.9919 5.26579
ltibia 111.135
lfoot -10.3187 -5.07622
ltoes -13.8012
416
root 1.38664 9.77094 -7.77308 -37.6797 3.31374 0.675324
lowerback 36.9053 4.19922 -7.3621
upperback 14.0932 2.72077 -1.06375
thorax -2.77625 1.10672 1.76318
lowerneck -1.55831 0.490435 -7.67436
upperneck 21.6492 1.08931 1.52698
head 6.81757 0.0540331 1.85644
rclavicle 3.97569e-015 -7.15625e-015
rhumerus -17.0974 -5.43169 -57.3002
rradius 79.7611
rwrist -12.8843
rhand -34.0244 0.219108
rfingers 7.12502
rthumb -7.20308 -29.6383
lclavicle 3.97569e-015 -7.15625e-015
lhumerus -74.1673 -52.429 115.422
lradius 75.275
lwrist 14.1335
lhand -14.0244 28.5645
lfingers 7.12502
lthumb 12.1056 58.1943
rfemur -95.436 -33.5077 22.5361
rtibia 137.802
rfoot 32.6795 -16.4303
rtoes 29.546
lfemur -51.9874 12.9437 5.28207
ltibia 111.176
lfoot -10.0457 -5.05965
ltoes -13.8478
417
root 1.38713 9.76538 -7.77451 -37.7561 3.37515 0.747844
lowerback 36.8977 4.16634 -7.36366
upperback 14.1004 2.67985 -1.08087
thorax -2.76219 1.08708 1.76056
lowerneck -1.56666 0.464316 -7.555
upperneck 21.7522 1.05158 1.49585
head 6.85452 0.0402157 1.82529
rclavicle -3.97569e-016 -7.95139e-015
rhumerus -17.1822 -5.46859 -57.4528
rradius 79.7153
rwrist -12.7985
rhand -33.9483 0.543813
rfingers 7.12502
rthumb -7.12968 -29.3161
lclavicle -3.97569e-016 -7.95139e-015
lhumerus -74.1266 -52.3657 115.382
lradius 75.2846
lwrist 14.3079
lhand -13.9177 28.3718
lfingers 7.12502
lthumb 12.2085 57.9955
rfemur -95.0858 -33.9393 22.2372
rtibia 137.905
rfoot 31.8766 -16.3211
rtoes 29.1393
lfemur -52.0786 12.8673 5.18596
ltibia 111.283
lfoot -9.68517 -5.0547
ltoes -14.1274
418
root 1.38867 9.75719 -7.77448 -37.8023 3.44057 0.756305
lowerback 36.8563 4.08565 -7.28851
upperback 14.1196 2.60955 -1.10182
thorax -2.72145 1.05549 1.72653
lowerneck -1.54431 0.454696 -7.49927
upperneck 21.8214 1.03133 1.50195
head 6.87386 0.0335534 1.81734
rclavicle -4.37326e-015 5.725e-014
rhumerus -17.2634 -5.52419 -57.611
rradius 79.6805
rwrist -12.5661
rhand -33.674 0.64394
rfingers 7.12502
rthumb -6.86492 -29.2248
lclavicle -4.37326e-015 5.725e-014
lhumerus -73.9767 -52.3008 115.258
lradius 75.2856
lwrist 14.5309
lhand -13.8358 28.3565
lfingers 7.12502
lthumb 12.2874 57.9755
rfemur -94.8978 -34.6048 22.2074
rtibia 138.137
rfoot 30.863 -16.3891
rtoes 29.3592
lfemur -52.3183 12.8363 5.14415
ltibia 111.464
lfoot -9.20972 -5.09877
ltoes -14.1582
419
root 1.39053 9.75014 -7.77518 -38.0016 3.44501 0.603592
lowerback 37.0291 3.95019 -7.0273
upperback 14.1138 2.51559 -1.07374
thorax -2.77855 1.02022 1.64929
lowerneck -1.51706 0.437274 -7.54621
upperneck 21.8641 0.994241 1.57928
head 6.88371 0.0169649 1.8484
rclavicle -1.55052e-014 5.725e-014
rhumerus -17.4632 -5.47378 -57.7082
rradius 79.7286
rwrist -12.3382
rhand -33.6145 0.672006
rfingers 7.12502
rthumb -6.80739 -29.1986
lclavicle -1.55052e-014 5.725e-014
lhumerus -73.9226 -52.1694 115.208
lradius 75.3176
lwrist 14.6721
lhand -13.9351 28.4987
lfingers 7.12502
lthumb 12.1917 58.1234
rfemur -94.4205 -34.6145 22.2954
rtibia 137.868
rfoot 30.9169 -15.9634
rtoes 27.8525
lfemur -52.3975 12.7538 5.34701
ltibia 111.641
lfoot -8.53571 -5.0797
ltoes -13.1084
420
root 1.39243 9.7436 -7.77428 -38.288 3.13829 0.124456
lowerback 37.2393 3.72995 -6.33562
upperback 14.1088 2.46644 -0.955846
thorax -2.85194 1.0201 1.43033
lowerneck -1.46299 0.41627 -7.60633
upperneck 21.9167 0.948418 1.67052
head 6.89244 -0.00401494 1.88566
rclavicle -7.15625e-015 1.11319e-014
rhumerus -17.7476 -5.3348 -57.7906
rradius 79.8408
rwrist -12.2225
rhand -33.7994 0.896121
rfingers 7.12502
rthumb -6.98597 -28.9686
lclavicle -7.15625e-015 1.11319e-014
lhumerus -74.018 -52.0288 115.26
lradius 75.3719
lwrist 14.7556
lhand -14.0451 28.6282
lfingers 7.12502
lthumb 12.0857 58.2592
rfemur -93.7744 -34.3069 22.7887
rtibia 137.632
rfoot 30.577 -16.4854
rtoes 27.498
lfemur -52.446 12.8856 6.15836
ltibia 111.855
lfoot -7.80841 -5.27288
ltoes -12.8824
421
root 1.38967 9.741 -7.77441 -38.4253 2.8869 -0.19793
lowerback 37.2968 3.57131 -5.8883
upperback 14.0872 2.42179 -0.862624
thorax -2.89368 1.01237 1.31286
lowerneck -1.34426 0.436527 -7.64104
upperneck 21.9314 0.955266 1.73713
head 6.87521 0.00103166 1.91301
rclavicle -7.15625e-015 7.95139e-015
rhumerus -17.9269 -5.21495 -57.9507
rradius 79.8975
rwrist -12.0926
rhand -33.937 1.08683
rfingers 7.12502
rthumb -7.11878 -28.7735
lclavicle -7.15625e-015 7.95139e-015
lhumerus -74.1089 -51.8752 115.309
lradius 75.3988
lwrist 14.8646
lhand -14.2191 28.6391
lfingers 7.12502
lthumb 11.9178 58.2799
rfemur -93.403 -33.9007 23.1774
rtibia 137.368
rfoot 30.3153 -17.0937
rtoes 27.7014
lfemur -52.7548 13.055 6.70352
ltibia 112.05
lfoot -7.20449 -5.59544
ltoes -14.7146
422
root 1.38394 9.74059 -7.77346 -38.451 2.85208 -0.270535
lowerback 37.1995 3.51132 -5.82043
upperback 14.0805 2.38113 -0.803341
thorax -2.87009 0.991779 1.35738
lowerneck -1.17444 0.457243 -7.65693
upperneck 21.8567 0.956852 1.79604
head 6.82026 0.00649167 1.933
rclavicle -1.09332e-014 -8.74653e-015
rhumerus -18.0659 -5.17503 -58.0925
rradius 79.9205
rwrist -11.8782
rhand -34.064 1.20387
rfingers 7.12502
rthumb -7.24131 -28.6522
lclavicle -1.09332e-014 -8.74653e-015
lhumerus -74.1723 -51.755 115.382
lradius 75.4087
lwrist 15.0167
lhand -14.3793 28.5049
lfingers 7.12502
lthumb 11.7633 58.1546
rfemur -93.2864 -33.6266 23.219
rtibia 137.098
rfoot 30.2186 -17.2633
rtoes 27.6046
lfemur -53.1418 13.1171 6.8326
ltibia 112.255
lfoot -6.30937 -5.69063
ltoes -14.8626
423
root 1.37751 9.74069 -7.77243 -38.4085 2.78603 -0.401892
lowerback 36.9625 3.4467 -5.63909
upperback 14.1037 2.38661 -0.744146
thorax -2.76939 0.997565 1.33257
lowerneck -1.1092 0.407619 -7.55291
upperneck 21.876 0.875132 1.79482
head 6.81888 -0.0251639 1.9102
rclavicle -7.95139e-016 2.70347e-014
rhumerus -18.3025 -5.22584 -58.1499
rradius 79.9895
rwrist -11.7799
rhand -34.0324 1.47489
rfingers 7.12502
rthumb -7.21088 -28.3823
lclavicle -7.95139e-016 2.70347e-014
lhumerus -74.3038 -51.7964 115.531
lradius 75.4466
lwrist 15.2541
lhand -14.66 28.3947
lfingers 7.12502
lthumb 11.4927 58.0596
rfemur -93.34 -33.316 23.3171
rtibia 136.926
rfoot 30.0761 -17.0387
rtoes 27.2601
lfemur -53.6115 13.2547 7.04823
ltibia 112.496
lfoot -4.95584 -5.75453
ltoes -12.6633
424
root 1.37131 9.74054 -7.7692 -38.4063 2.9209 -0.294625
lowerback 36.792 3.44784 -5.67764
upperback 14.1358 2.39072 -0.762013
thorax -2.67798 0.998118 1.33809
lowerneck -1.29971 0.336573 -7.33707
upperneck 22.0888 0.792339 1.72898
head 6.92574 -0.0572739 1.85109
rclavicle -1.5704e-014 7.95139e-016
rhumerus -18.5951 -5.34325 -58.1573
rradius 80.0462
rwrist -11.8025
rhand -33.9803 1.63712
rfingers 7.12502
rthumb -7.16058 -28.2217
lclavicle -1.5704e-014 7.95139e-016
lhumerus -74.2469 -51.8747 115.512
lradius 75.3211
lwrist 15.1754
lhand -14.565 28.3383
lfingers 7.12502
lthumb 11.5842 57.9982
rfemur -93.4492 -33.4733 23.1591
rtibia 136.913
rfoot 30.0202 -15.9852
rtoes 26.5035
lfemur -54.1326 13.2529 6.80921
ltibia 112.722
lfoot -3.58193 -5.90171
ltoes -10.9668
425
root 1.3649 9.73803 -7.76144 -38.4265 3.06917 -0.182718
lowerback 36.6937 3.44055 -5.76957
upperback 14.1337 2.3605 -0.748687
thorax -2.6479 0.979139 1.41248
lowerneck -1.4068 0.309321 -7.2931
upperneck 22.1794 0.763007 1.72087
head 6.97546 -0.0701839 1.84086
rclavicle -1.03368e-014 -7.95139e-016
rhumerus -18.8231 -5.41958 -58.1818
rradius 80.073
rwrist -11.7404
rhand -34.3236 1.17967
rfingers 7.12502
rthumb -7.49191 -28.6677
lclavicle -1.03368e-014 -7.95139e-016
lhumerus -73.989 -51.7347 115.291
lradius 75.0159
lwrist 14.5043
lhand -13.8812 28.0332
lfingers 7.12502
lthumb 12.2437 57.6548
rfemur -93.4542 -33.7058 23.06
rtibia 136.891
rfoot 29.9997 -14.8331
rtoes 25.6509
lfemur -54.7207 13.2918 6.57257
ltibia 112.993
lfoot -2.19988 -6.08368
ltoes -10.1805
426
root 1.35783 9.73502 -7.7528 -38.4486 3.08209 -0.270772
lowerback 36.6823 3.34795 -5.67677
upperback 14.0319 2.27685 -0.685689
thorax -2.75406 0.94219 1.45785
lowerneck -1.15292 0.305398 -7.45389
upperneck 22.0733 0.734963 1.78617
head 6.89751 -0.089458 1.88497
rclavicle -2.16675e-014 2.46493e-014
rhumerus -19.0776 -5.37091 -58.2735
rradius 80.0969
rwrist -11.5508
rhand -34.5396 0.478711
rfingers 7.12502
rthumb -7.70041 -29.3611
lclavicle -2.16675e-014 2.46493e-014
lhumerus -74.0986 -51.4921 115.355
lradius 74.7755
lwrist 14.1251
lhand -13.7068 27.5142
lfingers 7.12502
lthumb 12.4118 57.1257
rfemur -93.4083 -33.77 23.1908
rtibia 136.865
rfoot 29.8409 -14.0675
rtoes 25.2415
lfemur -55.3949 13.4391 6.66185
ltibia 113.306
lfoot -0.645769 -6.22477
ltoes -9.22935
427
root 1.35095 9.73557 -7.74623 -38.6431 3.37276 -0.0582535
lowerback 36.7965 3.30171 -5.90115
upperback 13.9984 2.13001 -0.746328
thorax -2.81902 0.865323 1.55542
lowerneck -0.883876 0.323559 -7.58186
upperneck 21.9303 0.726345 1.879
head 6.80365 -0.0940472 1.93314
rclavicle 5.76476e-015 1.27222e-014
rhumerus -19.3423 -5.32849 -58.3926
rradius 80.1232
rwrist -11.2625
rhand -34.2607 0.167826
rfingers 7.12502
rthumb -7.43121 -29.6817
lclavicle 5.76476e-015 1.27222e-014
lhumerus -74.3383 -51.4127 115.561
lradius 74.5923
lwrist 14.4026
lhand -14.0208 27.2091
lfingers 7.12502
lthumb 12.1091 56.8387
rfemur -93.2454 -34.3625 22.7595
rtibia 136.982
rfoot 29.5452 -12.9768
rtoes 24.8676
lfemur -55.8563 13.263 6.22847
ltibia 113.556
lfoot 0.994025 -5.94354
ltoes -8.46099
